<svg
  width="386"
  height="75"
  viewBox="0 0 386 75"
  fill="none"
  xmlns="http://www.w3.org/2000/svg"
>
  <path
    d="M100.92 23.7349C96.9985 12.6279 87.855 8.7099 76.656 8.7099C70.7806 8.7099 65.272 10.0164 60.604 13.9339C56.0312 17.7598 53.6971 22.9858 53.6971 28.9569C53.6971 42.9559 64.8961 46.3159 76.2821 48.6499C80.1957 49.4845 87.4791 50.516 87.4791 55.8376C87.4791 61.1533 81.7909 62.7426 77.497 62.7426C70.8728 62.7426 66.023 60.4065 64.155 53.6868L50.335 56.8595C53.2347 69.3665 64.155 74.5965 76.188 74.5965C82.6308 74.5965 89.626 73.3836 94.754 69.3666C99.709 65.5368 102.692 59.5678 102.692 53.3146C102.692 46.9732 99.514 41.6536 94.2919 38.2006C89.8108 35.2132 82.8119 33.9047 77.5919 32.7874C73.9473 32.1283 68.3469 31.0109 68.3469 26.3524C68.3469 21.4013 73.2024 20.3717 77.2136 20.3717C82.9037 20.3717 86.3591 22.5206 88.2276 27.9338L100.92 23.7349ZM150.378 73.6609C149.629 71.3306 149.442 68.9926 149.442 66.5668V44.4498C149.442 38.7597 149.91 33.5318 145.06 29.6138C141.225 26.4412 134.883 25.3179 130.037 25.3179C120.049 25.3179 108.852 28.6817 107.454 40.1559L120.422 41.3727C120.422 36.7064 124.25 34.4639 128.63 34.4639C130.687 34.4639 133.019 35.1191 134.234 36.7064C135.636 38.477 135.445 40.9009 135.445 42.9562V44.0736C129.659 44.6371 122.101 45.0076 116.694 47.063C110.442 49.3952 106.053 54.161 106.053 61.154C106.053 70.1162 112.582 74.597 120.982 74.597C128.078 74.597 132.177 71.8865 136.104 66.288C136.009 68.7158 136.194 71.2313 136.755 73.661L150.378 73.6609ZM135.445 52.8489C135.445 56.2185 135.542 59.009 133.583 61.9963C131.993 64.426 129.474 65.9158 126.674 65.9158C122.852 65.9158 120.611 63.3945 120.611 59.6641C120.611 52.7553 130.217 51.5463 135.445 50.9807L135.445 52.8489ZM170.914 46.9735C170.914 41.9347 171.84 34.7465 178.468 34.7465C186.03 34.7465 186.03 44.6369 186.03 49.9565C186.03 55.087 186.03 64.9795 178.283 64.9795C175.762 64.9795 173.8 63.7705 172.497 61.7133C171.004 59.3869 170.914 56.3937 170.914 53.7846L170.914 46.9735ZM157.005 73.6615H164.468C165.31 71.1421 165.872 68.4316 167.547 66.3821C171.004 72.0742 174.27 74.5975 181.082 74.5975C195.356 74.5975 200.303 62.3675 200.303 49.9575C200.303 38.7605 196.198 25.3195 182.667 25.3195C177.345 25.3195 173.431 27.5601 171.094 32.2284H170.725V9.6434H157.005L157.005 73.6615ZM247.431 73.6615C246.68 71.3312 246.503 68.9932 246.503 66.5674V44.4504C246.503 38.7603 246.967 33.5324 242.105 29.6144C238.287 26.4418 231.938 25.3185 227.086 25.3185C217.104 25.3185 205.901 28.6823 204.505 40.1565L217.474 41.3733C217.474 36.707 221.298 34.4645 225.686 34.4645C227.741 34.4645 230.07 35.1197 231.286 36.707C232.685 38.4776 232.505 40.9015 232.505 42.9568V44.0742C226.716 44.6377 219.157 45.0082 213.74 47.0636C207.488 49.3958 203.097 54.1616 203.097 61.1546C203.097 70.1168 209.634 74.5976 218.032 74.5976C225.124 74.5976 229.231 71.8871 233.156 66.2886C233.061 68.7164 233.242 71.2319 233.807 73.6616L247.431 73.6615ZM232.506 52.8495C232.506 56.2191 232.596 59.0096 230.636 61.9969C229.047 64.4266 226.525 65.9164 223.731 65.9164C219.901 65.9164 217.663 63.3951 217.663 59.6647C217.663 52.7559 227.27 51.5469 232.506 50.9813L232.506 52.8495ZM294.557 73.6615V9.6425H280.841V31.2935C277.85 26.906 274.312 25.3187 268.987 25.3187C255.175 25.3187 251.63 39.2257 251.63 50.5167C251.63 61.5287 255.36 74.5977 268.706 74.5977C274.772 74.5977 278.694 71.3314 281.311 66.2887H281.496V73.6617L294.557 73.6615ZM280.841 53.8785C280.841 56.2185 280.746 58.7321 279.628 60.8771C278.505 63.0182 276.175 64.703 273.657 64.703C266.84 64.703 266.093 56.0235 266.093 50.889C266.093 45.195 266.378 34.93 274.211 34.93C280.467 34.93 280.841 42.769 280.841 47.346V53.8785ZM344.955 52.2873C345.049 45.8503 344.019 39.1323 340.099 33.7213C336.174 28.3081 329.366 25.3187 322.74 25.3187C307.99 25.3187 299.693 36.6107 299.693 50.6107C299.693 64.7037 308.929 74.5977 323.109 74.5977C339.163 74.5977 344.668 60.5967 344.668 58.2607L331.972 57.3306C331.972 61.7142 327.782 64.7952 323.582 64.7952C317.611 64.7952 314.434 60.2244 314.434 54.6222L314.528 52.2881L344.955 52.2873ZM314.434 44.1714C314.906 38.7601 317.234 34.2751 323.301 34.2751C329.274 34.2751 330.954 39.0351 331.231 44.1714H314.434ZM351.018 73.6614H364.732V9.6424H351.018V73.6614ZM371.548 73.6614H385.26V9.6424H371.548V73.6614Z"
    fill="black"
  />
  <path
    d="M25.397 0C11.371 0 0 11.369 0 25.395C0 39.423 11.37 50.792 25.397 50.792C39.418 50.792 50.796 39.423 50.796 25.395C50.796 11.369 39.418 0 25.397 0Z"
    fill="#006DFF"
  />
  <path
    d="M28.5338 22.1639C29.2358 21.6471 29.6102 20.7267 29.6102 19.8727C29.6102 18.9426 29.1675 18.0553 28.3466 17.5736C27.5023 17.09 25.9442 17.1992 24.9419 17.1992H21.35V22.7548H25.3904C26.4258 22.7548 27.6485 22.8308 28.5338 22.1639ZM28.7165 27.7559C27.8663 27.2723 26.6827 27.2723 25.7213 27.2723H21.3513V33.3817H25.4619C26.5363 33.3817 27.9053 33.4501 28.8296 32.824C29.6856 32.2683 30.1654 31.2328 30.1654 30.1974C30.1654 29.2302 29.5706 28.2336 28.7165 27.7559ZM33.3057 36.7131C31.4591 38.084 28.9825 38.084 26.7927 38.084H15.4297V12.687H26.7927C28.7953 12.687 30.8663 12.687 32.6057 13.7966C34.6396 15.0972 35.716 16.9459 35.716 19.356C35.716 22.2381 33.7894 24.1647 31.1257 24.8316V24.9017C34.2711 25.5335 36.4219 27.9398 36.4219 31.2314C36.4219 33.4505 35.086 35.4202 33.3057 36.7131Z"
    fill="white"
  />
</svg>
