<svg
  width="57"
  height="18"
  viewBox="0 0 57 18"
  fill="none"
  xmlns="http://www.w3.org/2000/svg"
>
  <path
    d="M29.7701 0V10.5C29.7701 11.54 29.8101 12.6 29.8401 13.22H27.3301L27.2201 11.9H27.1601C26.6001 12.9 25.4901 13.43 24.3101 13.43C22.1501 13.43 20.4201 11.59 20.4201 8.76C20.4001 5.71 22.3201 3.92 24.5001 3.92C25.6301 3.92 26.4901 4.33 26.9001 4.94H26.9401V0.0100002H29.7701V0ZM26.9401 7.98C26.9401 7.81 26.9401 7.63 26.9001 7.46C26.7301 6.7 26.1201 6.08 25.2401 6.08C23.9401 6.08 23.2901 7.23 23.2901 8.67C23.2901 10.2 24.0501 11.16 25.2201 11.16C26.0401 11.16 26.7101 10.6 26.8801 9.8C26.9201 9.61 26.9401 9.39 26.9401 9.17V7.98Z"
    fill="#59585B"
  />
  <path
    d="M6.78 7.33002V7.27002C7.86 6.88002 9 5.78002 9 4.20002C9 3.05002 8.59 2.17002 7.83 1.58002C7.41 1.24002 6.97 1.03002 6.34 0.950018C4.8 0.750018 0.0699997 0.840018 0.0699997 0.840018C0.0499997 0.840018 0.02 0.840018 0 0.850018V13.21H2.81V8.28002H3.65C4.82 8.30002 5.36 8.71002 5.72 10.29C6.07 11.83 6.39 12.86 6.58 13.21H9.48C9.24 12.73 8.87 11.09 8.47 9.66002C8.15 8.50002 7.67 7.69002 6.79 7.33002H6.78ZM3.92 6.23002H2.8V2.79002C3.01 2.73002 3.4 2.70002 4.08 2.70002C5.38 2.70002 6.16 3.30002 6.16 4.43002C6.16 5.56002 5.32 6.24002 3.91 6.24002L3.92 6.23002Z"
    fill="#59585B"
  />
  <path
    d="M18.2797 10.9C17.5197 11.16 16.7397 11.29 15.7697 11.29C14.4497 11.29 13.2897 10.73 13.1997 9.54L19.0597 9.56001C19.0997 9.34001 19.1497 8.91 19.1497 8.42C19.1497 6.17 18.0297 3.88 15.0897 3.88C11.9397 3.88 10.4897 6.43001 10.4897 8.74001C10.4897 11.61 12.2597 13.39 15.3497 13.39C16.4197 13.39 17.4097 13.24 18.2697 12.94V10.89L18.2797 10.9ZM14.9497 5.77C16.2297 5.77 16.5297 6.94 16.5297 7.61H13.1797C13.2497 6.87 13.7397 5.77 14.9497 5.77Z"
    fill="#59585B"
  />
  <path
    d="M53.81 7.67002C52.69 7.28002 52.34 7.06002 52.34 6.61002C52.34 6.16002 52.73 5.88002 53.42 5.88002C54.18 5.88002 54.98 6.18002 55.39 6.38002L55.87 4.44002C55.31 4.16002 54.38 3.90002 53.32 3.90002C51.07 3.90002 49.62 5.18002 49.62 6.90002C49.6 7.96002 50.33 9.00002 52.22 9.62002C53.26 9.97002 53.54 10.2 53.54 10.68C53.54 11.16 53.19 11.42 52.33 11.42C51.47 11.42 50.43 11.07 49.91 10.76V13C50.56 13.25 51.41 13.42 52.33 13.42C54.93 13.42 56.26 12.17 56.26 10.46C56.24 9.14002 55.53 8.25002 53.8 7.67002H53.81Z"
    fill="url(#paint0_linear_3033_254)"
  />
  <path
    d="M36.02 7.67002C34.9 7.28002 34.55 7.06002 34.55 6.61002C34.55 6.16002 34.94 5.88002 35.63 5.88002C36.39 5.88002 37.19 6.18002 37.6 6.38002L38.08 4.44002C37.52 4.16002 36.59 3.90002 35.53 3.90002C33.28 3.90002 31.83 5.18002 31.83 6.90002C31.81 7.96002 32.54 9.00002 34.43 9.62002C35.47 9.97002 35.75 10.2 35.75 10.68C35.75 11.16 35.4 11.42 34.54 11.42C33.68 11.42 32.64 11.07 32.12 10.76V13C32.77 13.25 33.62 13.42 34.54 13.42C37.14 13.42 38.47 12.17 38.47 10.46C38.45 9.14002 37.74 8.25002 36.01 7.67002H36.02Z"
    fill="#E5AE33"
  />
  <path
    d="M44.69 8.52C44.56 9.04 44.41 9.73 44.28 10.21H44.22C44.11 9.72 43.92 9.06 43.77 8.52L42.35 3.91H39.21L42.62 12.37C42.71 12.59 42.73 12.74 42.73 12.84C42.84 15.61 39.41 15.1 39.21 15.18V17.5C39.21 17.5 40.99 17.54 41.72 17.5C44.61 17.35 45.42 13.66 46.72 10.05L49.07 3.91H46.04L44.69 8.52Z"
    fill="url(#paint1_linear_3033_254)"
  />
  <path
    d="M46.6999 0H44.1999L41.6699 3.06H43.9599L46.6999 0Z"
    fill="url(#paint2_linear_3033_254)"
  />
  <defs>
    <linearGradient
      id="paint0_linear_3033_254"
      x1="49.63"
      y1="8.66002"
      x2="56.27"
      y2="8.66002"
      gradientUnits="userSpaceOnUse"
    >
      <stop stop-color="#D3782C" />
      <stop offset="1" stop-color="#CB5F29" />
    </linearGradient>
    <linearGradient
      id="paint1_linear_3033_254"
      x1="39.22"
      y1="10.71"
      x2="49.08"
      y2="10.71"
      gradientUnits="userSpaceOnUse"
    >
      <stop stop-color="#E5AE33" />
      <stop offset="1" stop-color="#D3782C" />
    </linearGradient>
    <linearGradient
      id="paint2_linear_3033_254"
      x1="41.6699"
      y1="1.53"
      x2="46.6999"
      y2="1.53"
      gradientUnits="userSpaceOnUse"
    >
      <stop stop-color="#E5AE33" />
      <stop offset="1" stop-color="#D3782C" />
    </linearGradient>
  </defs>
</svg>
