<svg width="549" height="96" viewBox="0 0 549 96" fill="none" xmlns="http://www.w3.org/2000/svg">
  <path
    d="M255.799 75.0478H250.967V71.7053H264.538V75.0478H259.706V87.6461H255.812V75.0478H255.799Z"
    fill="currentColor"
  />
  <path
    d="M267.43 71.7054H272.982C274.614 71.7054 275.385 71.8211 276.079 72.0782C277.891 72.7724 279.022 74.3922 279.022 76.719C279.022 78.4159 278.225 80.2671 276.632 81.0642V81.1027C276.632 81.1027 276.85 81.3984 277.236 82.0669L280.333 87.6333H275.989L273.162 82.2597H271.337V87.6333H267.443V71.6925L267.43 71.7054ZM273.02 78.9301C274.267 78.9301 275.051 78.236 275.051 76.9633C275.051 75.7548 274.601 75.0478 272.648 75.0478H271.337V78.9301H273.033H273.02Z"
    fill="currentColor"
  />
  <path
    d="M291.591 84.3037H286.617L285.653 87.6461H281.644L287.054 71.7053H291.154L296.564 87.6461H292.555L291.578 84.3037H291.591ZM289.098 75.3434C289.098 75.3434 288.738 77.0789 288.455 78.0816L287.543 81.1798H290.678L289.792 78.0816C289.496 77.0789 289.149 75.3434 289.149 75.3434H289.111H289.098Z"
    fill="currentColor"
  />
  <path
    d="M296.731 71.7053H300.959L303.761 80.7813C304.069 81.784 304.365 83.3395 304.365 83.3395H304.404C304.404 83.3395 304.699 81.784 305.008 80.7813L307.861 71.7053H312.025L306.408 87.6461H302.347L296.706 71.7053H296.731Z"
    fill="currentColor"
  />
  <path
    d="M314.711 71.7054H324.696V75.0478H318.618V77.9403H323.475V81.2827H318.618V84.2909H325.018V87.6333H314.724V71.6925L314.711 71.7054Z"
    fill="currentColor"
  />
  <path
    d="M329.605 82.671C329.605 82.671 331.418 84.3166 333.422 84.3166C334.219 84.3166 335.093 84.008 335.093 83.0438C335.093 81.1541 327.922 81.2184 327.922 76.3076C327.922 73.3637 330.389 71.4225 333.564 71.4225C336.995 71.4225 338.691 73.2222 338.691 73.2222L337.046 76.4104C337.046 76.4104 335.44 75.0092 333.525 75.0092C332.728 75.0092 331.829 75.3691 331.829 76.2561C331.829 78.2616 339 77.9016 339 82.941C339 85.5892 336.969 87.8904 333.384 87.8904C329.798 87.8904 327.575 85.615 327.575 85.615L329.618 82.6453L329.605 82.671Z"
    fill="currentColor"
  />
  <path
    d="M343.459 82.671C343.459 82.671 345.271 84.3166 347.276 84.3166C348.073 84.3166 348.947 84.008 348.947 83.0438C348.947 81.1541 341.776 81.2184 341.776 76.3076C341.776 73.3637 344.243 71.4225 347.418 71.4225C350.849 71.4225 352.545 73.2222 352.545 73.2222L350.9 76.4104C350.9 76.4104 349.294 75.0092 347.379 75.0092C346.582 75.0092 345.683 75.3691 345.683 76.2561C345.683 78.2616 352.854 77.9016 352.854 82.941C352.854 85.5892 350.823 87.8904 347.238 87.8904C343.652 87.8904 341.429 85.615 341.429 85.615L343.472 82.6453L343.459 82.671Z"
    fill="currentColor"
  />
  <path d="M356.452 71.7053H360.346V87.6461H356.452V71.7053Z" fill="currentColor" />
  <path
    d="M373.005 84.3037H368.031L367.068 87.6461H363.058L368.468 71.7053H372.568L377.978 87.6461H373.969L372.992 84.3037H373.005ZM370.499 75.3434C370.499 75.3434 370.139 77.0789 369.856 78.0816L368.944 81.1798H372.08L371.193 78.0816C370.897 77.0789 370.55 75.3434 370.55 75.3434H370.512H370.499Z"
    fill="currentColor"
  />
  <path
    d="M386.743 71.7053H390.689L395.097 79.1487C395.726 80.19 396.433 81.874 396.433 81.874H396.472C396.472 81.874 396.292 80.1514 396.292 79.1487V71.7053H400.186V87.6461H396.266L391.832 80.2285C391.203 79.1872 390.496 77.5032 390.496 77.5032H390.457C390.457 77.5032 390.637 79.2258 390.637 80.2285V87.6461H386.743V71.7053Z"
    fill="currentColor"
  />
  <path
    d="M412.112 71.4353C416.918 71.4353 420.44 74.9963 420.44 79.5728C420.44 84.1494 416.918 87.9032 412.112 87.9032C407.305 87.9032 403.784 84.2522 403.784 79.5728C403.784 74.8934 407.305 71.4353 412.112 71.4353ZM412.112 84.3422C414.489 84.3422 416.417 82.2853 416.417 79.5728C416.417 76.8603 414.502 75.0091 412.112 75.0091C409.722 75.0091 407.807 76.976 407.807 79.5728C407.807 82.1696 409.722 84.3422 412.112 84.3422Z"
    fill="currentColor"
  />
  <path
    d="M431.286 71.4353C435.232 71.4353 437.262 73.685 437.262 73.685L435.463 76.6289C435.463 76.6289 433.677 74.9963 431.479 74.9963C428.421 74.9963 426.981 77.246 426.981 79.5471C426.981 81.8483 428.536 84.3422 431.479 84.3422C433.882 84.3422 435.707 82.3753 435.707 82.3753L437.712 85.2293C437.712 85.2293 435.463 87.9032 431.299 87.9032C426.313 87.9032 422.946 84.3551 422.946 79.6371C422.946 74.9191 426.506 71.4353 431.299 71.4353H431.286Z"
    fill="currentColor"
  />
  <path
    d="M444.048 75.0478H439.216V71.7053H452.787V75.0478H447.955V87.6461H444.061V75.0478H444.048Z"
    fill="currentColor"
  />
  <path
    d="M455.447 71.7053H459.341V81.784C459.341 83.4553 460.434 84.3423 462.104 84.3423C463.775 84.3423 464.867 83.4553 464.867 81.784V71.7053H468.761V81.784C468.761 85.3707 466.127 87.9161 462.117 87.9161C458.107 87.9161 455.434 85.3707 455.434 81.784V71.7053H455.447Z"
    fill="currentColor"
  />
  <path
    d="M473.221 71.7054H478.773C480.405 71.7054 481.176 71.8211 481.87 72.0782C483.669 72.7724 484.813 74.3922 484.813 76.719C484.813 78.4159 484.016 80.2671 482.422 81.0642V81.1027C482.422 81.1027 482.641 81.3984 483.026 82.0669L486.124 87.6333H481.78L478.952 82.2597H477.128V87.6333H473.234V71.6925L473.221 71.7054ZM478.811 78.9301C480.058 78.9301 480.842 78.236 480.842 76.9633C480.842 75.7548 480.392 75.0478 478.438 75.0478H477.128V78.9301H478.824H478.811Z"
    fill="currentColor"
  />
  <path
    d="M489.349 71.7053H493.295L497.703 79.1487C498.333 80.19 499.039 81.874 499.039 81.874H499.078C499.078 81.874 498.898 80.1514 498.898 79.1487V71.7053H502.792V87.6461H498.872L494.439 80.2285C493.809 79.1872 493.102 77.5032 493.102 77.5032H493.063C493.063 77.5032 493.243 79.2258 493.243 80.2285V87.6461H489.349V71.7053Z"
    fill="currentColor"
  />
  <path
    d="M515.451 84.3037H510.477L509.513 87.6461H505.504L510.914 71.7053H515.014L520.424 87.6461H516.415L515.438 84.3037H515.451ZM512.958 75.3434C512.958 75.3434 512.598 77.0789 512.315 78.0816L511.402 81.1798H514.538L513.651 78.0816C513.356 77.0789 513.009 75.3434 513.009 75.3434H512.97H512.958Z"
    fill="currentColor"
  />
  <path
    fill-rule="evenodd"
    clip-rule="evenodd"
    d="M86.3212 76.7217L79.6898 59.4825C77.7235 54.366 77.2994 54.0703 79.6513 49.1724L84.9461 38.1295C86.3983 35.2756 86.3854 34.1829 88.9429 37.911C99.1727 52.849 109.402 67.7743 119.632 82.7124C122.434 86.7876 122.331 88.4716 127.279 88.4716C129.939 88.4716 130.055 87.1861 129.644 85.862C128.975 83.7408 128.037 81.6068 127.292 79.4985L119.118 56.5643C118.257 54.276 118.36 52.1934 121.097 54.5203L142.071 69.7669C147.096 74.1506 149.036 68.5842 148.317 64.7918L139.68 15.2724C138.537 10.4773 139.308 7.57197 143.78 13.6912L186.743 67.9671L195.096 78.123C202.846 88.0474 200.584 87.6874 213.114 87.6874H232.635C235.475 87.6874 234.075 86.9418 233.046 86.1576L214.373 72.4151C211.25 69.9983 211.572 69.664 208.076 71.4767L206.65 72.2094L141.377 3.68961C135.182 -2.81528 133.653 0.527153 129.888 4.29382L100.522 32.6916C96.2168 36.8568 97.0008 37.1653 92.6055 33.0644C87.7091 28.4879 85.4344 26.3539 82.4914 30.1848L39.8502 73.1993C37.2671 75.809 37.6141 75.5261 34.3498 73.8421L29.8261 71.4895C26.3305 69.6769 26.6518 70.0111 23.5289 72.428L1.66851 89.3587C0.640393 90.13 -0.760418 90.8885 2.07976 90.8885H46.4688C49.9387 90.8885 49.7844 91.0813 51.4808 88.0603L62.8287 67.8643C63.7925 66.0002 65.1291 64.7147 67.211 66.5273L84.4063 80.0513C88.6601 83.9465 86.9381 78.2387 86.334 76.7346L86.3212 76.7217Z"
    fill="currentColor"
  />
  <path
    d="M153.843 80.9768C153.611 80.604 153.303 80.3212 152.918 80.1155C152.532 79.9098 152.056 79.8198 151.53 79.8198C150.54 79.8198 149.769 80.1412 149.203 80.784C148.638 81.4268 148.355 82.2881 148.355 83.3679C148.355 84.5764 148.664 85.502 149.268 86.1319C149.872 86.7618 150.758 87.0832 151.915 87.0832C153.29 87.0832 154.267 86.4661 154.858 85.2191H150.926V82.4038H158.238V86.1962C157.93 86.9418 157.48 87.636 156.889 88.2916C156.297 88.9472 155.552 89.4872 154.64 89.8985C153.74 90.3228 152.699 90.5285 151.542 90.5285C150.129 90.5285 148.882 90.2199 147.803 89.6157C146.723 89.0115 145.875 88.1631 145.284 87.0703C144.693 85.9905 144.397 84.7435 144.397 83.3422C144.397 81.941 144.693 80.7197 145.284 79.6399C145.875 78.56 146.71 77.7115 147.79 77.1073C148.869 76.5031 150.116 76.1946 151.53 76.1946C153.303 76.1946 154.768 76.6188 155.925 77.4673C157.081 78.3157 157.801 79.4856 158.084 80.964H153.869L153.843 80.9768Z"
    fill="currentColor"
  />
  <path
    d="M168.327 90.4256L165.525 85.2319H165.101V90.4256H161.181V76.3359H167.35C168.481 76.3359 169.445 76.5288 170.229 76.9273C171.013 77.3258 171.604 77.8657 172.002 78.5471C172.401 79.2284 172.606 79.9998 172.606 80.8482C172.606 81.8124 172.336 82.648 171.822 83.3808C171.308 84.1135 170.524 84.6277 169.509 84.9234L172.683 90.4127H168.314L168.327 90.4256ZM165.114 82.5451H167.054C167.581 82.5451 167.98 82.4166 168.249 82.1723C168.519 81.9281 168.648 81.5553 168.648 81.0796C168.648 80.6297 168.506 80.2697 168.237 80.0126C167.967 79.7555 167.568 79.6269 167.041 79.6269H165.101V82.558L165.114 82.5451Z"
    fill="currentColor"
  />
  <path
    d="M184.622 83.5222L179.828 95.2079H175.819L180.651 83.985H174.958V80.6298H184.622V83.5222Z"
    fill="currentColor"
  />
  <path
    d="M250.967 15.7454C250.967 15.3725 251.211 15.1283 251.584 15.1283H269.795C270.167 15.1283 270.412 15.3725 270.412 15.7454V21.7617C270.412 22.1345 270.167 22.3788 269.795 22.3788H259.372C259.128 22.3788 258.999 22.5074 258.999 22.7516V32.2004C258.999 32.4447 259.128 32.5732 259.372 32.5732H268.394C268.767 32.5732 269.011 32.8175 269.011 33.1903V39.2581C269.011 39.6309 268.767 39.8751 268.394 39.8751H259.372C259.128 39.8751 258.999 40.0037 258.999 40.2479V56.253C258.999 56.6259 258.755 56.8701 258.383 56.8701H251.584C251.211 56.8701 250.967 56.6259 250.967 56.253V15.7582V15.7454Z"
    fill="currentColor"
  />
  <path
    d="M290.344 56.8444C289.971 56.8444 289.792 56.7158 289.676 56.3559L284.959 40.5308H282.633C282.389 40.5308 282.261 40.6593 282.261 40.9036V56.2402C282.261 56.613 282.016 56.8572 281.644 56.8572H274.832C274.46 56.8572 274.216 56.613 274.216 56.2402V15.7454C274.216 15.3725 274.46 15.1283 274.832 15.1283H284.767C292.182 15.1283 296.976 18.625 296.976 27.8938C296.976 33.1646 295.202 36.6098 292.31 38.5639L298.017 56.2273C298.145 56.5359 298.017 56.8444 297.708 56.8444H290.344ZM288.879 27.8938C288.879 23.5358 287.53 22.186 284.407 22.186H282.633C282.389 22.186 282.261 22.3145 282.261 22.5588V33.2288C282.261 33.4731 282.389 33.6016 282.633 33.6016H284.407C287.53 33.6016 288.879 32.3161 288.879 27.8938Z"
    fill="currentColor"
  />
  <path
    d="M302.219 15.7454C302.219 15.3725 302.463 15.1283 302.836 15.1283H321.046C321.419 15.1283 321.663 15.3725 321.663 15.7454V21.7617C321.663 22.1345 321.419 22.3788 321.046 22.3788H310.624C310.38 22.3788 310.251 22.5074 310.251 22.7516V31.8276C310.251 32.0718 310.38 32.2004 310.624 32.2004H319.646C320.018 32.2004 320.262 32.4446 320.262 32.8175V38.8338C320.262 39.2066 320.018 39.4509 319.646 39.4509H310.624C310.38 39.4509 310.251 39.5795 310.251 39.8237V49.2725C310.251 49.5168 310.38 49.6453 310.624 49.6453H321.046C321.419 49.6453 321.663 49.8896 321.663 50.2624V56.2787C321.663 56.6516 321.419 56.8958 321.046 56.8958H302.836C302.463 56.8958 302.219 56.6516 302.219 56.2787V15.7839V15.7454Z"
    fill="currentColor"
  />
  <path
    d="M326.585 15.7454C326.585 15.3725 326.83 15.1283 327.202 15.1283H337.753C343.524 15.1283 346.891 17.3394 348.42 22.0574C349.153 24.3843 349.525 27.2125 349.525 35.9799C349.525 44.7474 349.153 47.5756 348.42 49.9024C346.891 54.6204 343.511 56.8315 337.753 56.8315H327.202C326.83 56.8315 326.585 56.5873 326.585 56.2145V15.7196V15.7454ZM334.99 49.6067H336.957C338.987 49.6067 340.079 48.874 340.696 47.0356C341.185 45.7501 341.365 43.9632 341.365 35.9928C341.365 28.0224 341.185 26.2354 340.696 24.9499C340.079 23.1116 338.974 22.3788 336.957 22.3788H334.99C334.746 22.3788 334.618 22.5074 334.618 22.7516V49.2468C334.618 49.491 334.746 49.6196 334.99 49.6196V49.6067Z"
    fill="currentColor"
  />
  <path
    d="M355.013 15.7454C355.013 15.3725 355.257 15.1283 355.63 15.1283H373.84C374.213 15.1283 374.457 15.3725 374.457 15.7454V21.7617C374.457 22.1345 374.213 22.3788 373.84 22.3788H363.418C363.173 22.3788 363.045 22.5074 363.045 22.7516V31.8276C363.045 32.0718 363.173 32.2004 363.418 32.2004H372.439C372.812 32.2004 373.056 32.4446 373.056 32.8175V38.8338C373.056 39.2066 372.812 39.4509 372.439 39.4509H363.418C363.173 39.4509 363.045 39.5795 363.045 39.8237V49.2725C363.045 49.5168 363.173 49.6453 363.418 49.6453H373.84C374.213 49.6453 374.457 49.8896 374.457 50.2624V56.2787C374.457 56.6516 374.213 56.8958 373.84 56.8958H355.63C355.257 56.8958 355.013 56.6516 355.013 56.2787V15.7839V15.7454Z"
    fill="currentColor"
  />
  <path
    d="M388.928 57.3972C381.384 57.3972 377.76 53.412 377.644 46.2258C377.644 45.853 377.773 45.6087 378.133 45.5573L384.7 44.516C385.124 44.4517 385.368 44.6446 385.368 45.0045C385.497 48.874 386.589 50.4038 388.979 50.4038C391.37 50.4038 392.295 49.234 392.295 45.4288C392.295 41.6235 391.562 40.4537 388.427 39.2324L385.908 38.2554C380.022 35.98 377.991 32.8561 377.991 26.1712C377.991 18.625 381.615 14.5756 389.031 14.5756C396.446 14.5756 399.762 18.3808 400.07 24.9371C400.07 25.3099 399.89 25.5542 399.517 25.6056L393.259 26.5826C392.886 26.6469 392.591 26.454 392.591 26.0941C392.526 23.0859 391.485 21.5561 389.275 21.5561C387.064 21.5561 386.088 22.9059 386.088 25.7213C386.088 28.8452 386.756 29.835 390.007 31.1206L392.526 32.0976C398.232 34.3088 400.443 37.3684 400.443 44.426C400.443 52.9492 397.191 57.3715 388.915 57.3715L388.928 57.3972Z"
    fill="currentColor"
  />
  <path
    d="M409.336 44.7603C408.963 44.7603 408.719 44.516 408.719 44.1432V37.0212C408.719 36.6484 408.963 36.4042 409.336 36.4042H415.595C415.967 36.4042 416.212 36.6484 416.212 37.0212V44.1432C416.212 44.516 415.967 44.7603 415.595 44.7603H409.336Z"
    fill="currentColor"
  />
  <path
    d="M425.85 56.8444C425.478 56.8444 425.233 56.6002 425.233 56.2274V15.7325C425.233 15.3597 425.478 15.1155 425.85 15.1155H435.669C443.277 15.1155 447.929 18.7407 447.929 28.2409C447.929 37.7412 443.084 41.3664 435.669 41.3664H433.638C433.394 41.3664 433.266 41.495 433.266 41.7392V56.2145C433.266 56.5873 433.021 56.8316 432.649 56.8316H425.837L425.85 56.8444ZM439.897 28.2666C439.897 23.5487 438.548 22.1989 435.425 22.1989H433.651C433.407 22.1989 433.278 22.3274 433.278 22.5717V33.9874C433.278 34.2316 433.407 34.3602 433.651 34.3602H435.425C438.548 34.3602 439.897 33.0103 439.897 28.2924V28.2666Z"
    fill="currentColor"
  />
  <path
    d="M456.604 15.7454C456.732 15.3725 456.912 15.1283 457.272 15.1283H464.508C464.88 15.1283 465.124 15.3725 465.176 15.7454L474.133 56.2402C474.198 56.613 474.005 56.8572 473.645 56.8572H466.834C466.41 56.8572 466.217 56.613 466.152 56.2402L464.803 48.694H456.887L455.473 56.2402C455.409 56.613 455.229 56.8572 454.805 56.8572H447.993C447.621 56.8572 447.441 56.613 447.505 56.2402L456.578 15.7454H456.604ZM463.646 42.3048L461.012 27.8295H460.832L458.069 42.3048H463.646Z"
    fill="currentColor"
  />
  <path
    d="M476.768 45.5573V15.7454C476.768 15.3726 477.012 15.1283 477.384 15.1283H484.196C484.568 15.1283 484.813 15.3726 484.813 15.7454V46.5471C484.813 48.7583 485.982 50.1724 488 50.1724C490.017 50.1724 491.251 48.7583 491.251 46.5471V15.7454C491.251 15.3726 491.495 15.1283 491.868 15.1283H498.679C499.052 15.1283 499.296 15.3726 499.296 15.7454V45.5573C499.296 53.412 495.004 57.3972 488.013 57.3972C481.021 57.3972 476.793 53.412 476.793 45.5573H476.768ZM480.752 10.2304C480.379 10.2304 480.135 9.98611 480.135 9.6133V3.59693C480.135 3.22412 480.379 2.97986 480.752 2.97986H485.468C485.841 2.97986 486.085 3.22412 486.085 3.59693V9.6133C486.085 9.98611 485.841 10.2304 485.468 10.2304H480.752ZM490.442 10.2304C490.069 10.2304 489.825 9.98611 489.825 9.6133V3.59693C489.825 3.22412 490.069 2.97986 490.442 2.97986H495.158C495.531 2.97986 495.775 3.22412 495.775 3.59693V9.6133C495.775 9.98611 495.531 10.2304 495.158 10.2304H490.442Z"
    fill="currentColor"
  />
  <path
    d="M505.221 15.7454C505.221 15.3725 505.465 15.1283 505.838 15.1283H512.649C513.022 15.1283 513.266 15.3725 513.266 15.7454V49.2468C513.266 49.4911 513.394 49.6196 513.639 49.6196H524.19C524.562 49.6196 524.807 49.8639 524.807 50.2367V56.253C524.807 56.6259 524.562 56.8701 524.19 56.8701H505.851C505.478 56.8701 505.234 56.6259 505.234 56.253V15.7582L505.221 15.7454Z"
    fill="currentColor"
  />
  <path
    d="M537.44 57.3972C529.896 57.3972 526.272 53.412 526.156 46.2258C526.156 45.853 526.285 45.6087 526.644 45.5573L533.211 44.516C533.636 44.4517 533.88 44.6446 533.88 45.0045C534.008 48.874 535.101 50.4038 537.491 50.4038C539.881 50.4038 540.807 49.234 540.807 45.4288C540.807 41.6235 540.074 40.4537 536.938 39.2324L534.419 38.2554C528.534 35.98 526.503 32.8561 526.503 26.1712C526.503 18.625 530.127 14.5756 537.542 14.5756C544.958 14.5756 548.273 18.3808 548.582 24.9371C548.582 25.3099 548.402 25.5542 548.029 25.6056L541.771 26.5826C541.398 26.6469 541.102 26.454 541.102 26.0941C541.038 23.0859 539.997 21.5561 537.787 21.5561C535.576 21.5561 534.599 22.9059 534.599 25.7213C534.599 28.8452 535.268 29.835 538.519 31.1206L541.038 32.0976C546.744 34.3088 548.955 37.3684 548.955 44.426C548.955 52.9492 545.703 57.3715 537.427 57.3715L537.44 57.3972Z"
    fill="currentColor"
  />
</svg>
